<?xml version="1.0" encoding="utf-8"?>
<!-- Generator: Adobe Illustrator 16.1.0, SVG Export Plug-In . SVG Version: 6.00 Build 0)  -->
<!DOCTYPE svg PUBLIC "-//W3C//DTD SVG 1.1//EN" "http://www.w3.org/Graphics/SVG/1.1/DTD/svg11.dtd">
<svg version="1.1" id="Type" xmlns="http://www.w3.org/2000/svg" xmlns:xlink="http://www.w3.org/1999/xlink" x="0px" y="0px"
	 width="100%" height="100%" viewBox="0 0 493 99" style="enable-background:new 0 0 493 99;" xml:space="preserve">
<style type="text/css">
<![CDATA[
	.st0{fill:#FFFFFF;}
]]>
</style>
<g>
	<path class="st0" d="M44.646,67.535c-0.945,0.945-2.853,1.857-6.9,1.857h-8.094v-11.61h8.094c4.047,0,5.955,0.912,6.9,1.857
		c1.045,1.045,1.509,2.372,1.509,3.947C46.155,65.163,45.69,66.49,44.646,67.535z M37.712,67.899c3.151,0,4.793-0.597,5.557-1.359
		c0.697-0.681,1.078-1.609,1.078-2.953c0-1.343-0.381-2.271-1.078-2.952c-0.763-0.763-2.405-1.359-5.557-1.359h-6.27v8.624H37.712z"
		/>
	<path class="st0" d="M64.782,62.791v1.46H51.878v3.648h13.136v1.493H50.103v-11.61h14.911v1.493H51.878v3.516H64.782z"/>
	<path class="st0" d="M81.9,67.286c0.315-0.315,0.431-0.696,0.431-1.111c0-0.398-0.083-0.763-0.365-1.045
		c-0.415-0.415-1.244-0.663-5.722-0.879c-4.627-0.232-6.121-0.631-6.867-1.377c-0.464-0.447-0.647-1.095-0.647-1.824
		c0-0.796,0.183-1.543,0.763-2.123c0.796-0.796,2.471-1.36,6.452-1.36c3.185,0,5.706,0.498,7.249,1.062v1.56
		c-1.808-0.697-4.611-1.228-7.249-1.228c-3.4,0-4.544,0.381-5.042,0.879c-0.266,0.266-0.381,0.63-0.381,1.045
		s0.116,0.729,0.332,0.945c0.448,0.448,1.493,0.696,5.606,0.896c4.992,0.249,6.236,0.631,6.982,1.377
		c0.481,0.465,0.68,1.161,0.68,1.907c0,0.796-0.199,1.56-0.779,2.14c-0.747,0.763-2.272,1.477-6.784,1.477
		c-3.317,0-6.369-0.548-8.21-1.311v-1.56c1.791,0.797,5.258,1.46,8.21,1.46C80.308,68.215,81.419,67.768,81.9,67.286z"/>
	<path class="st0" d="M88.336,69.393v-11.61h1.792v11.61H88.336z"/>
	<path class="st0" d="M111.889,63.223v1.062c0,1.509-0.315,2.637-1.211,3.532c-1.145,1.145-3.317,1.842-7.182,1.842
		c-4.595,0-6.519-0.962-7.613-2.057c-0.962-0.979-1.493-2.355-1.493-4.015c0-1.592,0.481-3.002,1.493-4.014
		c1.095-1.095,3.135-2.057,7.464-2.057c3.5,0,6.236,0.647,7.646,1.327v1.675c-1.659-0.879-4.462-1.525-7.646-1.525
		c-3.5,0-5.158,0.663-6.038,1.525c-0.696,0.714-1.111,1.709-1.111,3.068c0,1.394,0.415,2.372,1.094,3.069
		c0.863,0.846,2.438,1.559,6.22,1.559c3.002,0,4.909-0.48,5.772-1.344c0.664-0.68,0.763-1.476,0.763-2.189h-7.912v-1.459H111.889z"
		/>
	<path class="st0" d="M130.666,67.833V57.782h1.791v11.61h-2.521l-12.208-10.15v10.15h-1.775v-11.61h2.621L130.666,67.833z"/>
	<path class="st0" d="M144.748,63.902c0.813-0.812,2.189-1.095,3.765-1.095c0.531,0,1.012,0.05,1.477,0.116
		c-1.394-0.746-1.775-1.592-1.775-2.472c0-0.713,0.232-1.343,0.68-1.791c0.796-0.796,2.255-1.161,4.942-1.161
		c1.692,0,3.251,0.166,4.645,0.465v1.542c-1.477-0.314-2.919-0.514-4.628-0.514c-1.841,0-3.002,0.183-3.516,0.696
		c-0.232,0.216-0.315,0.548-0.315,0.862c0,0.614,0.365,1.111,1.642,1.759l5.391,2.753c2.007-1.244,4.379-2.786,5.573-3.698v1.874
		c-1.028,0.746-2.521,1.758-3.931,2.653l6.817,3.45v0.05h-2.952l-5.241-2.654l-0.183,0.116c-3.168,1.858-5.589,2.787-8.426,2.787
		c-1.99,0-3.234-0.398-3.964-1.128c-0.597-0.598-0.862-1.427-0.862-2.306C143.885,65.229,144.167,64.483,144.748,63.902z
		 M155.662,65.909l-1.294-0.663c-1.808-0.945-3.102-1.244-5.274-1.244c-1.36,0-2.322,0.232-2.803,0.713
		c-0.332,0.332-0.498,0.764-0.498,1.377c0,0.548,0.166,1.012,0.498,1.344c0.464,0.464,1.41,0.663,2.604,0.663
		C151.499,68.099,153.539,67.153,155.662,65.909z"/>
	<path class="st0" d="M175.948,67.602c-1.012-1.012-1.509-2.422-1.509-4.015c0-1.592,0.498-3.002,1.509-4.014
		c1.095-1.095,3.268-2.057,7.397-2.057c3.268,0,5.822,0.729,7.232,1.443v1.708c-1.659-0.929-4.346-1.675-7.215-1.675
		c-2.67,0-4.942,0.464-6.037,1.559c-0.713,0.714-1.078,1.726-1.078,3.035c0,1.311,0.365,2.289,1.078,3.02
		c1.095,1.095,3.367,1.575,6.021,1.575c2.886,0,5.573-0.713,7.232-1.592v1.625c-1.41,0.713-3.964,1.443-7.232,1.443
		C179.215,69.658,177.042,68.696,175.948,67.602z"/>
	<path class="st0" d="M204.278,57.782c3.35,0,4.428,0.431,5.225,1.228c0.63,0.63,0.879,1.492,0.879,2.471
		c0,0.979-0.249,1.842-0.912,2.488c-0.697,0.696-1.742,1.228-4.462,1.311l6.784,4.063v0.05h-2.753l-6.751-4.113h-5.755v4.113h-1.792
		v-11.61H204.278z M196.532,63.836h7.762c2.322,0,3.268-0.314,3.765-0.812c0.365-0.365,0.531-0.829,0.531-1.493
		c0-0.646-0.166-1.145-0.564-1.525c-0.498-0.498-1.36-0.729-3.732-0.729h-7.762V63.836z"/>
	<path class="st0" d="M229.573,62.791v1.46h-12.904v3.648h13.136v1.493h-14.911v-11.61h14.911v1.493h-13.136v3.516H229.573z"/>
	<path class="st0" d="M242.958,57.716l8.376,11.677h-2.09l-2.073-2.919h-10.98l-2.057,2.919h-1.99l8.376-11.677H242.958z
		 M237.236,64.997h8.89l-4.428-6.27L237.236,64.997z"/>
	<path class="st0" d="M268.055,59.275h-7.763v10.117h-1.808V59.275h-7.763v-1.493h17.333V59.275z"/>
	<path class="st0" d="M271.605,69.393v-11.61h1.791v11.61H271.605z"/>
	<path class="st0" d="M287.179,69.459h-2.321l-8.178-11.677h2.106l7.266,10.499l7.281-10.499h2.023L287.179,69.459z"/>
	<path class="st0" d="M313.104,62.791v1.46H300.2v3.648h13.137v1.493h-14.911v-11.61h14.911v1.493H300.2v3.516H313.104z"/>
	<path class="st0" d="M337.77,67.286c0.314-0.315,0.431-0.696,0.431-1.111c0-0.398-0.083-0.763-0.364-1.045
		c-0.415-0.415-1.244-0.663-5.723-0.879c-4.628-0.232-6.12-0.631-6.867-1.377c-0.464-0.447-0.646-1.095-0.646-1.824
		c0-0.796,0.183-1.543,0.763-2.123c0.797-0.796,2.472-1.36,6.452-1.36c3.185,0,5.706,0.498,7.248,1.062v1.56
		c-1.808-0.697-4.61-1.228-7.248-1.228c-3.4,0-4.544,0.381-5.042,0.879c-0.266,0.266-0.382,0.63-0.382,1.045
		s0.116,0.729,0.332,0.945c0.448,0.448,1.493,0.696,5.606,0.896c4.992,0.249,6.236,0.631,6.982,1.377
		c0.481,0.465,0.681,1.161,0.681,1.907c0,0.796-0.199,1.56-0.78,2.14c-0.746,0.763-2.272,1.477-6.783,1.477
		c-3.317,0-6.369-0.548-8.211-1.311v-1.56c1.792,0.797,5.258,1.46,8.211,1.46C336.177,68.215,337.288,67.768,337.77,67.286z"/>
	<path class="st0" d="M358.669,62.791v1.46h-12.904v3.648h13.137v1.493H343.99v-11.61h14.911v1.493h-13.137v3.516H358.669z"/>
	<path class="st0" d="M372.552,57.782c3.351,0,4.429,0.431,5.225,1.228c0.63,0.63,0.879,1.492,0.879,2.471
		c0,0.979-0.249,1.842-0.912,2.488c-0.696,0.696-1.741,1.228-4.462,1.311l6.784,4.063v0.05h-2.754l-6.75-4.113h-5.756v4.113h-1.791
		v-11.61H372.552z M364.806,63.836h7.763c2.322,0,3.268-0.314,3.765-0.812c0.365-0.365,0.531-0.829,0.531-1.493
		c0-0.646-0.166-1.145-0.564-1.525c-0.497-0.498-1.36-0.729-3.731-0.729h-7.763V63.836z"/>
	<path class="st0" d="M391.594,69.459h-2.321l-8.178-11.677h2.106l7.266,10.499l7.281-10.499h2.023L391.594,69.459z"/>
	<path class="st0" d="M403.057,69.393v-11.61h1.791v11.61H403.057z"/>
	<path class="st0" d="M410.52,67.602c-1.012-1.012-1.509-2.422-1.509-4.015c0-1.592,0.497-3.002,1.509-4.014
		c1.095-1.095,3.268-2.057,7.397-2.057c3.268,0,5.822,0.729,7.231,1.443v1.708c-1.658-0.929-4.346-1.675-7.215-1.675
		c-2.67,0-4.942,0.464-6.037,1.559c-0.713,0.714-1.078,1.726-1.078,3.035c0,1.311,0.365,2.289,1.078,3.02
		c1.095,1.095,3.367,1.575,6.021,1.575c2.886,0,5.573-0.713,7.231-1.592v1.625c-1.409,0.713-3.964,1.443-7.231,1.443
		C413.787,69.658,411.614,68.696,410.52,67.602z"/>
	<path class="st0" d="M443.992,62.791v1.46h-12.904v3.648h13.137v1.493h-14.911v-11.61h14.911v1.493h-13.137v3.516H443.992z"/>
	<path class="st0" d="M461.11,67.286c0.314-0.315,0.431-0.696,0.431-1.111c0-0.398-0.083-0.763-0.364-1.045
		c-0.415-0.415-1.244-0.663-5.723-0.879c-4.628-0.232-6.12-0.631-6.867-1.377c-0.464-0.447-0.646-1.095-0.646-1.824
		c0-0.796,0.183-1.543,0.763-2.123c0.797-0.796,2.472-1.36,6.452-1.36c3.185,0,5.706,0.498,7.248,1.062v1.56
		c-1.808-0.697-4.61-1.228-7.248-1.228c-3.4,0-4.544,0.381-5.042,0.879c-0.266,0.266-0.382,0.63-0.382,1.045
		s0.116,0.729,0.332,0.945c0.448,0.448,1.493,0.696,5.606,0.896c4.992,0.249,6.236,0.631,6.982,1.377
		c0.481,0.465,0.681,1.161,0.681,1.907c0,0.796-0.199,1.56-0.78,2.14c-0.746,0.763-2.272,1.477-6.783,1.477
		c-3.317,0-6.369-0.548-8.211-1.311v-1.56c1.792,0.797,5.258,1.46,8.211,1.46C459.518,68.215,460.629,67.768,461.11,67.286z"/>
</g>
<g>
	<path class="st0" d="M34.141,30.239v6.801h3.533l10.454-6.801h5.503v0.072l-12.978,8.243l13.17,8.435v0.072h-5.792l-10.646-6.994
		h-3.244v6.994h-3.725V30.239H34.141z"/>
	<path class="st0" d="M78.981,37.064v2.98H61.173v3.989h18.145v3.028H57.472V30.239h21.846v3.028H61.173v3.797H78.981z"/>
	<path class="st0" d="M98.659,47.158h-4.807L82.389,30.239h4.326l9.613,14.516l9.637-14.516h4.158L98.659,47.158z"/>
	<path class="st0" d="M114.083,47.062V30.239h3.725v16.823H114.083z"/>
	<path class="st0" d="M144.939,43.817V30.239h3.701v16.823h-5.215l-15.381-13.819v13.819h-3.701V30.239h5.479L144.939,43.817z"/>
	<path class="st0" d="M181.99,30.239v9.012c0,2.667-0.408,4.374-1.875,5.84c-1.322,1.322-3.605,2.187-7.186,2.187
		c-3.148,0-6.369-0.721-8.7-1.754v-3.292c2.427,1.178,5.6,2.043,8.724,2.043c1.827,0,3.413-0.457,4.23-1.274
		c0.769-0.769,1.081-1.827,1.081-3.653v-9.108H181.99z"/>
	<path class="st0" d="M200.948,30.143l11.704,16.919h-4.278l-2.692-3.965h-14.684l-2.692,3.965h-4.109l11.704-16.919H200.948z
		 M193.018,40.117h10.646l-5.335-7.859L193.018,40.117z"/>
	<path class="st0" d="M248.335,47.062h-3.725V32.979l-9.757,14.083h-5.047l-9.757-14.083v14.083h-3.701V30.239h6.08l9.974,14.516
		l9.998-14.516h5.936V47.062z"/>
	<path class="st0" d="M276.183,37.064v2.98h-17.809v3.989h18.145v3.028h-21.846V30.239h21.846v3.028h-18.145v3.797H276.183z"/>
	<path class="st0" d="M299.995,43.481c0.336-0.336,0.456-0.745,0.456-1.177c0-0.505-0.12-0.889-0.408-1.178
		c-0.529-0.529-1.515-0.745-7.45-1.058c-6.705-0.336-8.748-0.889-9.901-2.042c-0.673-0.673-0.961-1.61-0.961-2.812
		c0-1.226,0.264-2.379,1.177-3.292c1.178-1.178,3.485-1.995,9.397-1.995c4.686,0,8.219,0.673,10.454,1.562v3.148
		c-2.548-1.082-6.777-1.875-10.454-1.875c-4.591,0-5.912,0.433-6.465,0.985c-0.289,0.288-0.409,0.673-0.409,1.129
		c0,0.433,0.12,0.793,0.36,1.034c0.505,0.504,1.635,0.793,7.114,1.057c7.09,0.36,9.061,0.889,10.214,2.043
		c0.673,0.673,1.033,1.706,1.033,2.908c0,1.25-0.265,2.403-1.178,3.316c-1.201,1.202-3.581,2.139-9.877,2.139
		c-4.662,0-9.229-0.745-11.824-1.875v-3.148c2.499,1.202,7.811,2.187,11.824,2.187C297.808,44.539,299.322,44.154,299.995,43.481z"
		/>
	<path class="st0" d="M342.357,44.395c-1.321,1.322-3.989,2.667-9.733,2.667h-12.305V30.239h12.305c5.744,0,8.412,1.346,9.733,2.667
		c1.515,1.514,2.163,3.437,2.163,5.744S343.872,42.88,342.357,44.395z M332.553,44.034c3.941,0,5.983-0.721,6.921-1.658
		c0.865-0.865,1.298-2.042,1.298-3.725c0-1.682-0.433-2.86-1.298-3.725c-0.938-0.938-2.979-1.659-6.921-1.659h-8.508v10.767H332.553
		z"/>
	<path class="st0" d="M362.925,30.143l11.704,16.919h-4.278l-2.691-3.965h-14.684l-2.691,3.965h-4.11l11.704-16.919H362.925z
		 M354.994,40.117h10.646l-5.335-7.859L354.994,40.117z"/>
	<path class="st0" d="M388.9,47.158h-4.807L372.63,30.239h4.326l9.613,14.516l9.637-14.516h4.157L388.9,47.158z"/>
	<path class="st0" d="M404.323,47.062V30.239h3.726v16.823H404.323z"/>
	<path class="st0" d="M436.093,37.064v2.98h-17.809v3.989h18.145v3.028h-21.846V30.239h21.846v3.028h-18.145v3.797H436.093z"/>
	<path class="st0" d="M459.905,43.481c0.336-0.336,0.456-0.745,0.456-1.177c0-0.505-0.12-0.889-0.408-1.178
		c-0.529-0.529-1.515-0.745-7.45-1.058c-6.705-0.336-8.748-0.889-9.901-2.042c-0.673-0.673-0.961-1.61-0.961-2.812
		c0-1.226,0.264-2.379,1.177-3.292c1.178-1.178,3.485-1.995,9.397-1.995c4.686,0,8.219,0.673,10.454,1.562v3.148
		c-2.548-1.082-6.777-1.875-10.454-1.875c-4.591,0-5.912,0.433-6.465,0.985c-0.289,0.288-0.409,0.673-0.409,1.129
		c0,0.433,0.12,0.793,0.36,1.034c0.505,0.504,1.635,0.793,7.114,1.057c7.09,0.36,9.061,0.889,10.214,2.043
		c0.673,0.673,1.033,1.706,1.033,2.908c0,1.25-0.265,2.403-1.178,3.316c-1.201,1.202-3.581,2.139-9.877,2.139
		c-4.662,0-9.229-0.745-11.824-1.875v-3.148c2.499,1.202,7.811,2.187,11.824,2.187C457.718,44.539,459.232,44.154,459.905,43.481z"
		/>
</g>
</svg>
